<mxfile host="app.diagrams.net" modified="2022-01-07T15:12:20.494Z" agent="5.0 (Windows NT 10.0; Win64; x64) AppleWebKit/537.36 (KHTML, like Gecko) Chrome/96.0.4664.110 Safari/537.36" etag="NACZktB0x3ek34__ihWF" version="16.2.2" type="github" pages="2">
  <diagram id="E948EfgCOJVRb2plcjeF" name="Page-1">
    <mxGraphModel dx="868" dy="390" grid="1" gridSize="10" guides="1" tooltips="1" connect="1" arrows="1" fold="1" page="1" pageScale="1" pageWidth="827" pageHeight="1169" math="0" shadow="1">
      <root>
        <mxCell id="0" />
        <mxCell id="1" parent="0" />
        <mxCell id="jdlnI0Il5XYoSt5V_vpM-65" style="edgeStyle=orthogonalEdgeStyle;rounded=0;orthogonalLoop=1;jettySize=auto;html=1;exitX=1;exitY=0.5;exitDx=0;exitDy=0;entryX=0;entryY=0.5;entryDx=0;entryDy=0;fontColor=#000000;" parent="1" source="jdlnI0Il5XYoSt5V_vpM-61" target="jdlnI0Il5XYoSt5V_vpM-63" edge="1">
          <mxGeometry relative="1" as="geometry" />
        </mxCell>
        <mxCell id="jdlnI0Il5XYoSt5V_vpM-66" style="edgeStyle=orthogonalEdgeStyle;rounded=0;orthogonalLoop=1;jettySize=auto;html=1;exitX=1;exitY=0.5;exitDx=0;exitDy=0;entryX=0;entryY=0.5;entryDx=0;entryDy=0;fontColor=#000000;" parent="1" source="jdlnI0Il5XYoSt5V_vpM-61" target="jdlnI0Il5XYoSt5V_vpM-64" edge="1">
          <mxGeometry relative="1" as="geometry" />
        </mxCell>
        <mxCell id="jdlnI0Il5XYoSt5V_vpM-75" style="edgeStyle=orthogonalEdgeStyle;rounded=0;orthogonalLoop=1;jettySize=auto;html=1;exitX=1;exitY=0.5;exitDx=0;exitDy=0;entryX=0;entryY=0.5;entryDx=0;entryDy=0;fontColor=#000000;" parent="1" source="jdlnI0Il5XYoSt5V_vpM-61" target="jdlnI0Il5XYoSt5V_vpM-74" edge="1">
          <mxGeometry relative="1" as="geometry" />
        </mxCell>
        <mxCell id="jdlnI0Il5XYoSt5V_vpM-61" value="&lt;font color=&quot;#000000&quot;&gt;F13 :lire les QR Code&lt;/font&gt;" style="rounded=0;whiteSpace=wrap;html=1;labelBackgroundColor=none;fontColor=#0000FF;strokeColor=#000000;fillColor=default;" parent="1" vertex="1">
          <mxGeometry x="90" y="730" width="120" height="60" as="geometry" />
        </mxCell>
        <mxCell id="jdlnI0Il5XYoSt5V_vpM-63" value="&quot;fouiller le cube&quot; pour trouver le QRC" style="rounded=0;whiteSpace=wrap;html=1;labelBackgroundColor=none;fontColor=#000000;strokeColor=#000000;fillColor=default;" parent="1" vertex="1">
          <mxGeometry x="320" y="680" width="100" height="40" as="geometry" />
        </mxCell>
        <mxCell id="jdlnI0Il5XYoSt5V_vpM-64" value="lecteur de QRC" style="rounded=0;whiteSpace=wrap;html=1;labelBackgroundColor=none;fontColor=#000000;strokeColor=#000000;fillColor=default;" parent="1" vertex="1">
          <mxGeometry x="320" y="730" width="120" height="30" as="geometry" />
        </mxCell>
        <mxCell id="jdlnI0Il5XYoSt5V_vpM-77" style="edgeStyle=orthogonalEdgeStyle;rounded=0;orthogonalLoop=1;jettySize=auto;html=1;exitX=1;exitY=0.5;exitDx=0;exitDy=0;entryX=0;entryY=0.5;entryDx=0;entryDy=0;fontColor=#000000;" parent="1" source="jdlnI0Il5XYoSt5V_vpM-74" target="jdlnI0Il5XYoSt5V_vpM-76" edge="1">
          <mxGeometry relative="1" as="geometry" />
        </mxCell>
        <mxCell id="jdlnI0Il5XYoSt5V_vpM-74" value="analyse du QRC" style="rounded=0;whiteSpace=wrap;html=1;labelBackgroundColor=none;fontColor=#000000;strokeColor=#000000;fillColor=default;" parent="1" vertex="1">
          <mxGeometry x="320" y="780" width="140" height="30" as="geometry" />
        </mxCell>
        <mxCell id="jdlnI0Il5XYoSt5V_vpM-76" value="transmission des informations" style="rounded=0;whiteSpace=wrap;html=1;labelBackgroundColor=none;fontColor=#000000;strokeColor=#000000;fillColor=default;" parent="1" vertex="1">
          <mxGeometry x="530" y="710" width="120" height="60" as="geometry" />
        </mxCell>
      </root>
    </mxGraphModel>
  </diagram>
  <diagram id="lp-3FWoehNaO1ZD1mjEL" name="Page-1">
    <mxGraphModel>
      <root>
        <mxCell id="0" />
        <mxCell id="1" parent="0" />
      </root>
    </mxGraphModel>
  </diagram>
</mxfile>
